<svg width="41" height="41" viewBox="0 0 41 41" fill="none" xmlns="http://www.w3.org/2000/svg">
<path d="M37.7882 29.7362L23.1763 15.1243C23.5974 13.2168 23.4817 11.2299 22.8419 9.38425C22.2021 7.53859 21.0634 5.90634 19.552 4.66873C18.0407 3.43111 16.216 2.63656 14.2804 2.37329C12.3448 2.11002 10.3741 2.38832 8.58713 3.17731L7.06102 3.84926L13.1882 9.97648L9.97657 13.1995L3.84935 7.07231L3.17741 8.58703C2.38391 10.3739 2.10218 12.346 2.36362 14.2836C2.62505 16.2211 3.41939 18.0481 4.65809 19.5607C5.8968 21.0734 7.53121 22.2124 9.37918 22.8507C11.2272 23.4891 13.2161 23.6018 15.1244 23.1762L29.7363 37.7881C29.9478 37.9999 30.1991 38.1679 30.4756 38.2826C30.7521 38.3972 31.0485 38.4562 31.3478 38.4562C31.6472 38.4562 31.9436 38.3972 32.2201 38.2826C32.4966 38.1679 32.7478 37.9999 32.9594 37.7881L37.7882 32.9593C38 32.7477 38.168 32.4965 38.2827 32.22C38.3973 31.9435 38.4563 31.6471 38.4563 31.3477C38.4563 31.0484 38.3973 30.752 38.2827 30.4755C38.168 30.199 38 29.9477 37.7882 29.7362ZM31.3421 36.1823L15.8077 20.6365L15.1585 20.8187C13.9223 21.1801 12.6188 21.2481 11.3517 21.0174C10.0846 20.7866 8.88879 20.2635 7.85935 19.4894C6.82992 18.7154 5.99525 17.7119 5.4217 16.5587C4.84815 15.4055 4.55155 14.1344 4.55546 12.8465C4.55406 12.2802 4.61131 11.7154 4.7263 11.1609L9.97657 16.4112L16.4227 9.96509L11.1724 4.7262C12.5731 4.43216 14.0262 4.50624 15.3898 4.94122C16.7533 5.37621 17.9808 6.15724 18.9525 7.2081C19.9243 8.25897 20.607 9.54378 20.934 10.9372C21.2611 12.3306 21.2214 13.7849 20.8188 15.1584L20.6366 15.8076L36.1824 31.3534L31.3421 36.1823Z" fill="#E7946D"/>
<path d="M31.9442 31.9016C32.5224 31.3235 32.5224 30.386 31.9442 29.8078C31.366 29.2296 30.4286 29.2296 29.8504 29.8078C29.2722 30.386 29.2722 31.3235 29.8504 31.9016C30.4286 32.4798 31.366 32.4798 31.9442 31.9016Z" fill="#E7946D"/>
</svg>
